<!-- icon666.com - MILLIONS vector ICONS FREE --><svg id="Layer_1" enable-background="new 0 0 512 512" viewBox="0 0 512 512" xmlns="http://www.w3.org/2000/svg"><g><g><path d="m320.818 0c-29.259 0-53.063 23.803-53.063 53.061v130.263c0 29.259 23.804 53.063 53.063 53.063 29.258 0 53.061-23.804 53.061-53.063v-130.263c0-29.258-23.803-53.061-53.061-53.061z" fill="#54e360"></path><path d="m458.939 130.263c-29.259 0-53.063 23.803-53.063 53.061v38.063c0 8.284 6.716 15 15 15h38.063c29.258 0 53.061-23.804 53.061-53.063s-23.803-53.061-53.061-53.061z" fill="#00b44b"></path></g><g><path d="m183.322 138.123h-130.261c-29.258 0-53.061 23.803-53.061 53.06 0 29.259 23.803 53.063 53.061 53.063h130.262c29.258 0 53.061-23.804 53.061-53.063-.001-29.257-23.804-53.06-53.062-53.06z" fill="#008adf"></path><path d="m183.322 0c-29.258 0-53.061 23.803-53.061 53.061s23.803 53.062 53.061 53.062h38.061c8.284 0 15-6.716 15-15v-38.062c0-29.258-23.803-53.061-53.061-53.061z" fill="#0065a3"></path></g><g><path d="m191.182 275.614c-29.258 0-53.061 23.804-53.061 53.063v130.261c0 29.259 23.803 53.063 53.061 53.063 29.26 0 53.064-23.804 53.064-53.063v-130.261c0-29.259-23.805-53.063-53.064-53.063z" fill="#ff0059"></path><path d="m91.123 275.614h-38.062c-29.258 0-53.061 23.804-53.061 53.063 0 29.258 23.803 53.061 53.061 53.061 29.259 0 53.063-23.803 53.063-53.061v-38.063c-.001-8.284-6.717-15-15.001-15z" fill="#d20041"></path></g><g><path d="m458.939 267.753h-130.261c-29.258 0-53.061 23.804-53.061 53.063 0 29.257 23.803 53.06 53.061 53.06h130.262c29.258 0 53.061-23.803 53.061-53.06-.001-29.259-23.804-53.063-53.062-53.063z" fill="#ffd400"></path><path d="m328.678 405.876h-38.061c-8.284 0-15 6.716-15 15v38.062c0 29.259 23.803 53.063 53.061 53.063 29.259 0 53.063-23.804 53.063-53.063-.001-29.258-23.804-53.062-53.063-53.062z" fill="#ff9f04"></path></g></g></svg>